<svg width="320" height="64" viewBox="0 0 320 64" fill="none" xmlns="http://www.w3.org/2000/svg">
<g clip-path="url(#clip0_60_759)">
<path d="M30.0887 20.8379C32.2372 20.3118 34.5569 20.293 36.7147 20.7832C39.1677 21.3406 41.3052 22.8648 45.579 25.9131L55.076 32.6865C56.0728 33.3975 56.9528 34.0261 57.7274 34.5938L62.3768 34.5566C62.6123 34.5547 62.8044 34.7361 62.8046 34.96L62.8104 40.8711C62.919 41.868 62.7643 42.8776 62.3427 43.8438C61.5636 45.6284 59.4552 47.1884 55.2382 50.3076L45.8671 57.2383C41.6502 60.3574 39.5419 61.9174 37.0995 62.5156C34.951 63.0418 32.6313 63.0615 30.4735 62.5713C28.0203 62.014 25.8833 60.4889 21.6093 57.4404L12.1122 50.667C7.83845 47.6187 5.70143 46.0945 4.88953 44.3232C4.56372 43.6123 4.38423 42.8745 4.34949 42.1338C4.34718 42.1168 4.34461 42.0996 4.3446 42.082V41.9756C4.34349 41.9167 4.34388 41.8578 4.3446 41.7988V35.4307C4.34462 35.2093 4.53181 35.0292 4.76453 35.0273L9.34363 34.9893C10.1051 34.4109 10.97 33.7701 11.9491 33.0459L21.3202 26.1152C25.5374 22.9959 27.6462 21.436 30.0887 20.8379Z" fill="#FFCE5C"/>
<path d="M30.0886 14.3867C32.237 13.8606 34.5567 13.8418 36.7145 14.332C39.1676 14.8894 41.3049 16.4136 45.5788 19.4619L55.0759 26.2354C56.0801 26.9516 56.966 27.5843 57.7448 28.1553L62.3776 28.1182C62.6128 28.1164 62.804 28.2969 62.8044 28.5205L62.8102 34.4102C62.9209 35.4102 62.7655 36.4233 62.3425 37.3926C61.5634 39.1772 59.455 40.7372 55.238 43.8564L45.8679 50.7871C41.6508 53.9064 39.5418 55.4663 37.0993 56.0645C34.9508 56.5906 32.6312 56.6103 30.4733 56.1201C28.0201 55.5628 25.8831 54.0378 21.6091 50.9893L12.112 44.2158C7.83824 41.1675 5.70122 39.6433 4.88934 37.8721C4.56597 37.1664 4.38693 36.4344 4.35028 35.6992C4.34755 35.6807 4.34442 35.6618 4.34442 35.6426L4.34344 35.5244C4.34234 35.4661 4.34275 35.4079 4.34344 35.3496V28.9922C4.34343 28.7708 4.53161 28.5908 4.76434 28.5889L9.32684 28.5508C10.0924 27.9691 10.9636 27.3242 11.9499 26.5947L21.32 19.6641C25.5372 16.5447 27.646 14.9849 30.0886 14.3867Z" fill="#F7F7F8"/>
<path d="M30.1072 7.80444C32.2514 7.27657 34.566 7.25682 36.7195 7.74878C39.1678 8.30809 41.3006 9.83809 45.5662 12.8972L55.1258 19.7517C56.1182 20.4634 56.9937 21.0943 57.7654 21.6628L62.4012 21.6248C62.6366 21.6228 62.8287 21.8042 62.8289 22.0281L62.8338 27.866C62.9639 28.8984 62.8134 29.9465 62.3787 30.948C61.6014 32.7387 59.4971 34.3036 55.2889 37.4333L45.8543 44.45C41.6461 47.5797 39.5418 49.1448 37.1043 49.7449C34.9602 50.2727 32.6455 50.2915 30.492 49.7996C28.0438 49.2403 25.9108 47.7111 21.6453 44.6521L12.0858 37.7966C7.8204 34.7377 5.68803 33.2079 4.87775 31.4304C4.46078 30.5157 4.28289 29.5574 4.34357 28.6042V22.5017C4.34355 22.2804 4.53172 22.1003 4.76447 22.0984L9.32892 22.0603C10.0873 21.4812 10.9483 20.8396 11.9227 20.115L21.3572 13.0994C25.5656 9.96952 27.6697 8.40456 30.1072 7.80444Z" fill="#4316CA"/>
<path d="M4.34417 28.8089L4.34371 22.6548C4.32292 21.8135 4.48982 20.9695 4.84474 20.1564C5.6237 18.3717 7.73229 16.812 11.9495 13.6927L21.3201 6.7615C25.5373 3.64217 27.6459 2.08251 30.0884 1.48436C32.237 0.958214 34.5564 0.938867 36.7143 1.42909C39.1675 1.9864 41.3045 3.51065 45.5786 6.55915L55.0756 13.333C59.3497 16.3815 61.4867 17.9057 62.2985 19.6771C62.7618 20.6883 62.9311 21.7527 62.8055 22.8044L62.8104 27.9521C62.8589 28.3857 62.8573 28.8218 62.8055 29.2557L62.8104 34.4033C62.8589 34.8368 62.8573 35.2728 62.8056 35.7066L62.8105 40.8548C62.9225 41.857 62.7668 42.8723 62.3429 43.8437C61.5639 45.6284 59.4553 47.1881 55.2381 50.3074L45.8675 57.2386C41.6503 60.3579 39.5417 61.9176 37.0992 62.5157C34.9507 63.0419 32.6312 63.0612 30.4733 62.571C28.0201 62.0137 25.8831 60.4894 21.609 57.4409L12.112 50.6671C7.83793 47.6186 5.70089 46.0944 4.88913 44.3229C4.56342 43.6122 4.38305 42.8751 4.34823 42.1346C4.34586 42.1173 4.34464 42.0997 4.34464 42.0819L4.34464 42.0421C4.34111 41.9268 4.3411 41.8115 4.34461 41.6962L4.34415 35.5743C4.34125 35.4696 4.34126 35.3649 4.34417 35.2601L4.34371 29.106C4.34126 29.007 4.34141 28.908 4.34417 28.8089Z" fill="url(#paint0_linear_60_759)" fill-opacity="0.7" style="mix-blend-mode:multiply"/>
<path d="M12.112 31.3134C7.83793 28.2649 5.70089 26.7407 4.88913 24.9692C4.17509 23.411 4.15955 21.7263 4.84474 20.1564C5.6237 18.3717 7.73229 16.812 11.9495 13.6927L21.3201 6.7615C25.5373 3.64217 27.6459 2.08251 30.0884 1.48436C32.237 0.958214 34.5564 0.938867 36.7143 1.42909C39.1675 1.9864 41.3045 3.51065 45.5786 6.55915L55.0756 13.333C59.3497 16.3815 61.4867 17.9057 62.2985 19.6771C63.0125 21.2353 63.0281 22.9201 62.3429 24.49C61.5639 26.2747 59.4553 27.8343 55.2381 30.9537L45.8675 37.8849C41.6503 41.0042 39.5417 42.5639 37.0992 43.162C34.9507 43.6881 32.6312 43.7075 30.4733 43.2173C28.0201 42.66 25.8831 41.1357 21.609 38.0872L12.112 31.3134Z" fill="#5423E7"/>
<g clip-path="url(#clip1_60_759)">
<mask id="mask0_60_759" style="mask-type:luminance" maskUnits="userSpaceOnUse" x="19" y="10" width="36" height="24">
<path d="M35.4315 30.9449C36.2933 30.3985 37.6831 30.3984 38.537 30.9433C39.39 31.4887 39.3853 32.3732 38.5233 32.9197C37.667 33.4607 36.2827 33.4578 35.4284 32.9141C34.5774 32.3686 34.5785 31.4876 35.4315 30.9449ZM51.2351 21.3338C51.5714 21.1194 52.0198 21.0107 52.4612 21.0151C52.9028 21.0182 53.3431 21.1326 53.6754 21.3454C54.0092 21.5578 54.1857 21.839 54.1843 22.1193C54.1853 22.3995 54.0078 22.6801 53.6737 22.8914L42.1161 30.219C41.7824 30.4308 41.3421 30.5433 40.9007 30.5448C40.4591 30.5476 40.0113 30.4376 39.6751 30.2217C39.338 30.0069 39.165 29.7224 39.1664 29.4407C39.1658 29.1591 39.3396 28.875 39.6775 28.6613L51.2351 21.3338ZM30.4556 27.7666C31.3176 27.2201 32.7074 27.2203 33.5615 27.7652C33.9905 28.039 34.2088 28.4 34.2073 28.758C34.2077 29.1162 33.9888 29.4767 33.559 29.7489C32.7029 30.2908 31.3134 30.2857 30.4529 29.7361C29.6017 29.1904 29.6024 28.3095 30.4556 27.7666ZM46.2706 18.1628C46.6039 17.9509 47.0454 17.839 47.4857 17.8404C47.9262 17.8406 48.3674 17.9542 48.6999 18.1674C49.0364 18.3815 49.2179 18.6637 49.2187 18.9454C49.2217 19.2277 49.0438 19.5094 48.7094 19.7205L37.1518 27.0481C36.8183 27.2598 36.3763 27.3728 35.9318 27.373C35.4878 27.3745 35.0385 27.2612 34.6996 27.0437C34.3616 26.8289 34.1902 26.5434 34.1964 26.2628C34.2002 25.9815 34.379 25.7018 34.713 25.4903L46.2706 18.1628ZM22.5483 11.9598L28.5508 13.9185L33.3206 10.8937C33.8249 10.5739 34.6793 10.8524 34.5667 11.3001L33.5059 15.5348L39.509 17.4926C40.1437 17.6996 39.9931 18.302 39.2889 18.3716L32.6304 19.0302L31.5711 23.2647C31.4592 23.7125 30.5115 23.8064 30.1888 23.4016L27.1348 19.574L20.4763 20.2335C19.7726 20.3033 19.3381 19.7586 19.8424 19.4389L24.6134 16.4149L21.5577 12.5878C21.2348 12.1832 21.9136 11.7528 22.5483 11.9598Z" fill="white"/>
</mask>
<g mask="url(#mask0_60_759)">
<path d="M30.4363 6.50177L12.1893 18.0704L36.9745 33.9016L55.2215 22.333L30.4363 6.50177Z" fill="#FFDA85"/>
</g>
</g>
</g>
<g clip-path="url(#clip2_60_759)">
<path d="M311.566 20.8313V23.9533H306.197V37.9396C306.197 38.9802 306.355 39.7607 306.672 40.2811C306.999 40.791 307.414 41.1344 307.916 41.3113C308.429 41.4778 308.969 41.5611 309.536 41.5611L311.565 41.5609V45.12L309.143 45.1201C308.052 45.1201 306.983 44.8963 305.935 44.4489C304.899 44.0014 304.037 43.3198 303.349 42.404C302.673 41.4882 302.334 40.3331 302.334 38.9386V15.0869H306.197V20.8313H311.566Z" fill="#121217"/>
<path d="M293.667 44.8078V20.8312H297.53V44.8078H293.667ZM295.631 15.8751C294.878 15.8751 294.229 15.6306 293.683 15.1415C293.149 14.6524 292.881 14.0644 292.881 13.3776C292.881 12.6907 293.149 12.1028 293.683 11.6137C294.229 11.1246 294.878 10.88 295.631 10.88C296.384 10.88 297.028 11.1246 297.562 11.6137C298.108 12.1028 298.381 12.6907 298.381 13.3776C298.381 14.0644 298.108 14.6524 297.562 15.1415C297.028 15.6306 296.384 15.8751 295.631 15.8751Z" fill="#121217"/>
<path d="M264.648 44.8V10.88H268.996V27.7075H269.417L285.549 10.88H291.23L276.15 26.1838L291.23 44.8H285.97L273.485 29.0325L268.996 33.8025V44.8H264.648Z" fill="#121217"/>
<path d="M245.542 37.5363L252.557 22.464L253.314 20.88H260.734L252.052 38.88L244.482 54.4796H237.062L242.059 44.1603L230.803 20.88H238.223L245.542 37.5363ZM103.89 10.9923C109.392 10.9923 114.339 13.0078 117.923 16.2238L112.824 20.5919C110.603 18.5281 107.423 17.2316 103.89 17.2316C97.0262 17.2317 91.4236 22.2244 91.4236 28.3683C91.4237 34.4641 97.0262 39.456 103.89 39.4562C109.594 39.4562 114.339 36.0956 115.853 31.4396H103.436L110.654 25.2482H123.272C123.474 26.2561 123.575 27.2643 123.575 28.3683C123.575 37.9202 114.742 45.6964 103.89 45.6964C93.0389 45.6963 84.2567 37.9201 84.2566 28.3683C84.2566 18.7684 93.0388 10.9924 103.89 10.9923ZM139.13 20.4005C141.048 20.4965 142.865 20.9276 144.48 21.6476C145.893 22.3195 147.003 23.1839 148.012 24.1437V20.88H154.878V44.88H148.012V41.5685C147.003 42.5283 145.893 43.3917 144.53 44.0636C142.864 44.7836 141.048 45.2636 139.13 45.3116C137.262 45.3596 135.344 45.0725 133.628 44.4005C131.861 43.7765 130.296 42.8162 128.984 41.6642C126.491 39.3393 125.087 36.2485 125.048 33.1339V32.5353C125.087 29.4641 126.49 26.373 128.984 24.048C130.296 22.896 131.861 21.9356 133.628 21.3116C135.344 20.6396 137.262 20.3525 139.13 20.4005ZM189.242 20.5441C190.05 20.4961 190.908 20.5436 191.816 20.6876C192.674 20.8316 193.532 21.1201 194.34 21.504C195.955 22.272 197.268 23.4718 198.126 24.7198C198.529 25.3917 198.882 26.0158 199.135 26.6876C199.387 27.3596 199.539 28.0322 199.69 28.7042C199.791 29.3282 199.891 30.0002 199.891 30.6241V32.256C199.942 36.48 199.993 40.6562 199.942 44.8322H193.078C192.977 40.6562 193.027 36.48 193.078 32.256V30.7677C193.078 30.336 193.078 29.9522 192.977 29.5685C192.927 29.1845 192.825 28.8478 192.724 28.5118C192.573 28.1759 192.422 27.8397 192.27 27.5997C191.917 27.0239 191.513 26.6396 191.059 26.3517C190.555 26.0157 189.999 25.8237 189.242 25.7277C188.99 25.7277 188.787 25.6798 188.535 25.6798H188.232C187.929 25.6798 187.627 25.7285 187.324 25.7765C184.498 26.2085 182.983 28.3679 182.983 31.1036V44.8322H176.119C176.068 40.6562 176.068 36.48 176.119 32.256L176.17 30.7677C176.119 30.336 176.119 29.9523 176.068 29.5685C175.967 29.1845 175.917 28.8478 175.765 28.5118C175.664 28.1759 175.513 27.8397 175.311 27.5997C175.008 27.0239 174.605 26.6396 174.1 26.3517C173.596 26.0157 173.04 25.8237 172.283 25.7277C172.031 25.7277 171.828 25.6798 171.576 25.6798H171.273C170.97 25.6798 170.668 25.7285 170.365 25.7765C167.539 26.2085 166.024 28.3685 166.024 31.1525V44.88H159.211V20.88H166.024V23.9044C166.024 23.9044 167.489 21.0239 171.728 20.5919C171.93 20.544 172.081 20.5441 172.283 20.5441C173.091 20.4961 173.999 20.5436 174.857 20.6876C175.766 20.8316 176.624 21.12 177.431 21.504C179.046 22.272 180.309 23.4719 181.167 24.7198C181.318 24.9597 181.469 25.1997 181.57 25.4396C181.621 25.4396 181.621 25.3919 181.621 25.3439C182.126 24.144 183.084 22.8963 184.447 22.0323C185.81 21.1204 187.576 20.5921 189.242 20.5441ZM210.411 44.8322H203.547V20.88H210.411V44.8322ZM221.124 12.9122C223.95 10.8964 227.432 10.7518 230.763 10.8478V16.7999C228.189 16.7039 226.473 16.7997 225.464 17.5197C225.11 17.7597 224.353 18.2882 224.353 20.6398V20.88H230.763V26.2081H224.353V44.8322H217.54V26.2081H212.845V20.88H217.54V20.6398C217.54 17.1359 218.651 14.6882 221.124 12.9122ZM139.13 26.3038C137.212 26.4478 135.446 27.1205 134.083 28.3204C133.376 28.8964 132.821 29.616 132.417 30.3839C132.063 31.1519 131.861 32.0162 131.861 32.8322C131.861 33.6961 132.063 34.5603 132.417 35.3282C132.821 36.0962 133.376 36.8158 134.083 37.3917C135.446 38.5917 137.212 39.2645 139.13 39.3605C140.089 39.4085 141.098 39.3601 142.057 39.1681C143.067 38.9281 144.026 38.5437 144.934 38.0157C145.843 37.4398 146.65 36.6716 147.155 35.8077C147.71 34.8959 148.012 33.888 148.012 32.8322C148.012 31.8243 147.71 30.8163 147.155 29.9044C146.65 29.0405 145.843 28.2724 144.934 27.6964C144.076 27.1205 143.067 26.7361 142.057 26.5441C141.098 26.3521 140.089 26.2558 139.13 26.3038ZM206.979 10.9445C209.2 10.9446 210.967 12.6245 210.967 14.7365C210.966 16.8002 209.2 18.5283 206.979 18.5284C204.809 18.5284 203.042 16.8003 203.042 14.7365C203.042 12.6244 204.809 10.9445 206.979 10.9445Z" fill="url(#paint1_linear_60_759)"/>
</g>
<defs>
<linearGradient id="paint0_linear_60_759" x1="4.34573" y1="1.10885" x2="62.8543" y2="1.10885" gradientUnits="userSpaceOnUse">
<stop stop-color="white" stop-opacity="0.35"/>
<stop offset="0.046875" stop-color="white" stop-opacity="0"/>
<stop offset="0.364583" stop-color="white" stop-opacity="0"/>
<stop offset="0.458333" stop-color="white" stop-opacity="0.5"/>
<stop offset="0.505208" stop-color="white" stop-opacity="0.5"/>
<stop offset="0.734375" stop-opacity="0.35"/>
</linearGradient>
<linearGradient id="paint1_linear_60_759" x1="84.2566" y1="32.6531" x2="260.734" y2="32.6531" gradientUnits="userSpaceOnUse">
<stop stop-color="#7047EB"/>
<stop offset="0.5" stop-color="#5423E7"/>
<stop offset="1" stop-color="#4316CA"/>
</linearGradient>
<clipPath id="clip0_60_759">
<rect width="58.5492" height="61.8499" fill="white" transform="translate(4.33124 1.07507)"/>
</clipPath>
<clipPath id="clip1_60_759">
<rect width="21.6156" height="29.4202" fill="white" transform="matrix(0.844563 -0.535456 0.842755 0.538297 12.1893 18.0704)"/>
</clipPath>
<clipPath id="clip2_60_759">
<rect width="227.309" height="43.6538" fill="white" transform="translate(84.2566 10.8263)"/>
</clipPath>
</defs>
</svg>
