<svg width="320" height="64" viewBox="0 0 320 64" fill="none" xmlns="http://www.w3.org/2000/svg">
<g clip-path="url(#clip0_60_759)">
<path fill-rule="evenodd" clip-rule="evenodd" d="M4.67058 44.323C5.44605 46.0944 7.48756 47.6187 11.5706 50.6672L20.6431 57.441C24.7261 60.4895 26.7676 62.0137 29.1111 62.571C31.1726 63.0613 33.3883 63.0419 35.4408 62.5158C37.7742 61.9176 39.7885 60.3579 43.8172 57.2386L52.7689 50.3074C56.7976 47.1881 58.8119 45.6284 59.5561 43.8437C59.9611 42.8724 60.1098 41.8571 60.0028 40.855L59.9974 34.9598C59.9972 34.7359 59.8138 34.555 59.5889 34.5569L55.1491 34.5949C54.4086 34.0269 53.5668 33.3983 52.6137 32.6867L43.5412 25.9129C39.4581 22.8644 37.4166 21.3402 35.0731 20.7829C33.0117 20.2926 30.7959 20.312 28.7434 20.8381C26.4101 21.4363 24.3958 22.9959 20.3671 26.1153L11.4153 33.0465C10.4795 33.7711 9.65232 34.4115 8.92454 34.9902L4.5515 35.0276C4.32916 35.0295 4.14994 35.2094 4.14995 35.4308L4.1504 41.6963C4.14704 41.8115 4.14705 41.9268 4.15043 42.0421L4.15043 42.0819C4.15043 42.0998 4.1516 42.1174 4.15386 42.1346C4.18712 42.8751 4.35943 43.6122 4.67058 44.323Z" fill="#FFCE5C"/>
<path fill-rule="evenodd" clip-rule="evenodd" d="M4.67052 37.8717C5.44599 39.6431 7.4875 41.1674 11.5705 44.2159L20.643 50.9897C24.726 54.0382 26.7675 55.5624 29.1111 56.1197C31.1725 56.61 33.3883 56.5906 35.4407 56.0645C37.7741 55.4663 39.7884 53.9067 43.8171 50.7873L52.7689 43.8561C56.7975 40.7368 58.8119 39.1771 59.556 37.3924C59.961 36.421 60.1098 35.4056 60.0027 34.4034L59.9973 28.5207C59.9971 28.2968 59.8137 28.116 59.5888 28.1179L55.1648 28.1557C54.4205 27.5845 53.5735 26.9521 52.6136 26.2354L43.5411 19.4616C39.4581 16.4131 37.4166 14.8889 35.073 14.3316C33.0116 13.8413 30.7959 13.8607 28.7434 14.3868C26.41 14.985 24.3957 16.5446 20.367 19.664L11.4153 26.5952C10.4727 27.3249 9.64047 27.9694 8.90892 28.5513L4.55101 28.5885C4.32868 28.5904 4.14945 28.7704 4.14947 28.9917L4.14992 35.2601C4.14712 35.3653 4.14713 35.4705 4.14994 35.5757L4.14994 35.6429C4.14995 35.6643 4.15162 35.6853 4.15485 35.7058C4.19056 36.4387 4.36252 37.1681 4.67052 37.8717Z" fill="#F75FDE"/>
<path fill-rule="evenodd" clip-rule="evenodd" d="M4.65936 31.4304C5.43338 33.208 7.47087 34.7375 11.5458 37.7966L20.6775 44.6519C24.7525 47.711 26.79 49.2406 29.1289 49.7999C31.1862 50.2919 33.3975 50.2725 35.4458 49.7447C37.7744 49.1445 39.7846 47.5796 43.805 44.4497L52.8172 37.4335C56.8376 34.3036 58.8478 32.7386 59.5903 30.9478C60.0067 29.9435 60.1516 28.8924 60.0255 27.8572L60.0202 22.0277C60.02 21.8038 59.8366 21.6229 59.6118 21.6249L55.1864 21.6629C54.4486 21.094 53.6102 20.4645 52.6612 19.7522L43.5295 12.8969C39.4546 9.83777 37.4171 8.30821 35.0782 7.7489C33.0209 7.25692 30.8096 7.27625 28.7613 7.80413C26.4327 8.40426 24.4225 9.96922 20.4021 13.0991L11.3898 20.1153C10.4585 20.8404 9.63506 21.4814 8.91025 22.0608L4.55106 22.0983C4.32872 22.1002 4.14948 22.2802 4.1495 22.5015L4.14993 28.5832C4.08815 29.5433 4.2581 30.5089 4.65936 31.4304Z" fill="#4316CA"/>
<path d="M4.14998 28.8089L4.14954 22.6548C4.12968 21.8135 4.28912 20.9695 4.62817 20.1564C5.37232 18.3717 7.38665 16.812 11.4153 13.6927L20.3671 6.7615C24.3958 3.64217 26.4101 2.08251 28.7434 1.48436C30.7959 0.958214 33.0117 0.938867 35.0731 1.42909C37.4166 1.9864 39.4581 3.51065 43.5412 6.55915L52.6137 13.333C56.6967 16.3815 58.7382 17.9057 59.5137 19.6771C59.9563 20.6883 60.118 21.7527 59.9981 22.8044L60.0027 27.9521C60.0491 28.3857 60.0475 28.8218 59.9981 29.2557L60.0027 34.4033C60.0491 34.8368 60.0475 35.2728 59.9981 35.7066L60.0028 40.8548C60.1098 41.857 59.9611 42.8723 59.5561 43.8437C58.8119 45.6284 56.7976 47.1881 52.7689 50.3074L43.8172 57.2386C39.7885 60.3579 37.7742 61.9176 35.4408 62.5157C33.3883 63.0419 31.1726 63.0612 29.1111 62.571C26.7676 62.0137 24.7261 60.4894 20.6431 57.4409L11.5706 50.6671C7.48756 47.6186 5.44605 46.0944 4.67058 44.3229C4.35943 43.6122 4.18712 42.8751 4.15386 42.1346C4.1516 42.1173 4.15043 42.0997 4.15043 42.0819L4.15043 42.0421C4.14705 41.9268 4.14704 41.8115 4.1504 41.6962L4.14996 35.5743C4.14719 35.4696 4.1472 35.3649 4.14998 35.2601L4.14954 29.106C4.1472 29.007 4.14735 28.908 4.14998 28.8089Z" fill="url(#paint0_linear_60_759)" fill-opacity="0.7" style="mix-blend-mode:multiply"/>
<path d="M11.5705 31.3134C7.4875 28.2649 5.44599 26.7407 4.67052 24.9692C3.98839 23.411 3.97355 21.7263 4.62811 20.1564C5.37225 18.3717 7.38659 16.812 11.4153 13.6927L20.367 6.7615C24.3957 3.64217 26.41 2.08251 28.7434 1.48436C30.7959 0.958214 33.0116 0.938867 35.073 1.42909C37.4166 1.9864 39.4581 3.51065 43.5411 6.55915L52.6136 13.333C56.6966 16.3815 58.7381 17.9057 59.5136 19.6771C60.1957 21.2353 60.2106 22.9201 59.556 24.49C58.8119 26.2747 56.7975 27.8343 52.7689 30.9537L43.8171 37.8849C39.7884 41.0042 37.7741 42.5639 35.4407 43.162C33.3883 43.6881 31.1725 43.7075 29.1111 43.2173C26.7675 42.66 24.726 41.1357 20.643 38.0872L11.5705 31.3134Z" fill="#5423E7"/>
<g clip-path="url(#clip1_60_759)">
<mask id="mask0_60_759" style="mask-type:luminance" maskUnits="userSpaceOnUse" x="18" y="10" width="34" height="24">
<path d="M33.8476 30.9449C34.6709 30.3985 35.9986 30.3984 36.8143 30.9433C37.6291 31.4887 37.6247 32.3732 36.8012 32.9197C35.9832 33.4607 34.6608 33.4578 33.8446 32.9141C33.0317 32.3686 33.0328 31.4876 33.8476 30.9449ZM48.9448 21.3338C49.2661 21.1194 49.6944 21.0107 50.1161 21.0151C50.5379 21.0182 50.9585 21.1326 51.276 21.3454C51.5949 21.5578 51.7635 21.839 51.7622 22.1193C51.7631 22.3995 51.5936 22.6801 51.2744 22.8914L40.2334 30.219C39.9146 30.4308 39.494 30.5433 39.0724 30.5448C38.6505 30.5476 38.2227 30.4376 37.9015 30.2217C37.5795 30.0069 37.4142 29.7224 37.4156 29.4407C37.415 29.1591 37.581 28.875 37.9038 28.6613L48.9448 21.3338ZM29.0941 27.7666C29.9176 27.2201 31.2453 27.2203 32.0612 27.7652C32.4711 28.039 32.6796 28.4 32.6781 28.758C32.6786 29.1162 32.4694 29.4767 32.0588 29.7489C31.241 30.2908 29.9136 30.2857 29.0916 29.7361C28.2784 29.1904 28.2791 28.3095 29.0941 27.7666ZM44.2022 18.1628C44.5206 17.9509 44.9424 17.839 45.363 17.8404C45.7838 17.8406 46.2053 17.9542 46.5229 18.1674C46.8443 18.3815 47.0178 18.6637 47.0185 18.9454C47.0214 19.2277 46.8514 19.5094 46.532 19.7205L35.491 27.0481C35.1724 27.2598 34.7502 27.3728 34.3256 27.373C33.9014 27.3745 33.4722 27.2612 33.1485 27.0437C32.8256 26.8289 32.6618 26.5434 32.6677 26.2628C32.6714 25.9815 32.8422 25.7018 33.1612 25.4903L44.2022 18.1628ZM21.5403 11.9598L27.2745 13.9185L31.831 10.8937C32.3128 10.5739 33.129 10.8524 33.0214 11.3001L32.0081 15.5348L37.7429 17.4926C38.3492 17.6996 38.2053 18.302 37.5326 18.3716L31.1717 19.0302L30.1598 23.2647C30.0529 23.7125 29.1475 23.8064 28.8392 23.4016L25.9218 19.574L19.5609 20.2335C18.8886 20.3033 18.4736 19.7586 18.9554 19.4389L23.5131 16.4149L20.594 12.5878C20.2855 12.1832 20.934 11.7528 21.5403 11.9598Z" fill="white"/>
</mask>
<g mask="url(#mask0_60_759)">
<path d="M29.0757 6.50177L11.6443 18.0704L35.3217 33.9016L52.753 22.333L29.0757 6.50177Z" fill="#FFDA85"/>
</g>
</g>
</g>
<g clip-path="url(#clip2_60_759)">
<path d="M311.914 24.2298H304.633V35.5578C304.633 38.5338 305.115 39.3978 305.935 39.9258C307.092 40.6938 309.744 40.5498 311.914 40.3098V44.1978C310.901 44.2938 309.937 44.3418 308.973 44.3418C306.899 44.3418 304.922 44.0538 303.476 43.0938C300.631 41.2698 300.39 38.2458 300.39 35.5578V24.2298H295.424V20.3418H300.39V14.8218L304.633 12.5658V20.3418H311.914V24.2298Z" fill="#121217"/>
<path d="M292.369 44.3417H288.077V20.3417H292.369V44.3417ZM290.247 16.6457C288.608 16.6457 287.306 15.3017 287.306 13.6697C287.306 12.0857 288.608 10.7417 290.247 10.7417C291.838 10.7417 293.188 12.0857 293.188 13.6697C293.188 15.3017 291.838 16.6457 290.247 16.6457Z" fill="#121217"/>
<path d="M266.89 26.8217L285.743 44.5337H279.812L261.345 27.1577V44.5337H257.102V10.9817H261.345V26.4857L277.884 10.9817H283.766L266.89 26.8217Z" fill="#121217"/>
<path d="M246.813 20.2937H253.901L245.607 38.2937L238.375 53.8937H231.287L236.06 43.5737L225.308 20.2937H232.396L239.387 36.9497L246.09 21.8777L246.813 20.2937Z" fill="#121217"/>
<path d="M219.243 16.9337C218.905 17.1737 218.182 17.7017 218.182 20.0537V20.2937H224.306V25.6217H218.182V44.2457H211.673V25.6217H207.189V20.2937H211.673V20.0537C211.673 16.5497 212.734 14.1017 215.096 12.3257C217.796 10.3097 221.123 10.1657 224.306 10.2617V16.2137C221.847 16.1177 220.207 16.2137 219.243 16.9337Z" fill="#121217"/>
<path d="M203.899 44.2458H197.341V20.2938H203.899V44.2458ZM200.62 17.9418C198.546 17.9418 196.859 16.2138 196.859 14.1498C196.859 12.0378 198.546 10.3578 200.62 10.3578C202.741 10.3578 204.429 12.0378 204.429 14.1498C204.429 16.2138 202.741 17.9418 200.62 17.9418Z" fill="#121217"/>
<path d="M192.885 31.6697C192.933 35.8937 192.982 40.0697 192.933 44.2457H186.376C186.279 40.0697 186.328 35.8937 186.376 31.6697V30.1817C186.376 29.7497 186.376 29.3657 186.279 28.9817C186.231 28.5977 186.135 28.2617 186.038 27.9257C185.894 27.5897 185.749 27.2537 185.604 27.0137C185.267 26.4377 184.881 26.0537 184.447 25.7657C183.965 25.4297 183.435 25.2377 182.711 25.1417C182.47 25.1417 182.277 25.0937 182.036 25.0937C181.988 25.0937 181.892 25.0937 181.795 25.0937H181.747C181.458 25.0937 181.168 25.1417 180.879 25.1897C178.179 25.6217 176.732 27.7817 176.732 30.5177C176.732 30.6137 176.732 30.6617 176.732 30.7097V31.6697C176.732 31.9097 176.732 32.1497 176.732 32.3897V44.2457H170.175C170.127 40.0697 170.127 35.8937 170.175 31.6697L170.223 30.1817C170.175 29.7497 170.175 29.3657 170.127 28.9817C170.03 28.5977 169.982 28.2617 169.837 27.9257C169.741 27.5897 169.596 27.2537 169.403 27.0137C169.114 26.4377 168.728 26.0537 168.246 25.7657C167.764 25.4297 167.234 25.2377 166.51 25.1417C166.269 25.1417 166.076 25.0937 165.835 25.0937C165.787 25.0937 165.691 25.0937 165.594 25.0937C165.594 25.0937 165.594 25.0937 165.546 25.0937C165.257 25.0937 164.967 25.1417 164.678 25.1897C161.978 25.6217 160.532 27.7817 160.532 30.5657V44.2937H154.022V20.2937H160.532V23.3177C160.532 23.3177 161.93 20.4377 165.98 20.0057C166.173 19.9577 166.318 19.9577 166.51 19.9577C167.282 19.9097 168.15 19.9577 168.969 20.1017C169.837 20.2457 170.657 20.5337 171.429 20.9177C172.971 21.6857 174.177 22.8857 174.997 24.1337C175.141 24.3737 175.286 24.6137 175.382 24.8537C175.431 24.8537 175.431 24.8057 175.431 24.7577C175.913 23.5577 176.829 22.3097 178.131 21.4457C179.433 20.5337 181.12 20.0057 182.711 19.9577C183.483 19.9097 184.302 19.9577 185.17 20.1017C185.99 20.2457 186.81 20.5337 187.581 20.9177C189.124 21.6857 190.378 22.8857 191.198 24.1337C191.583 24.8057 191.921 25.4297 192.162 26.1017C192.403 26.7737 192.548 27.4457 192.692 28.1177C192.789 28.7417 192.885 29.4137 192.885 30.0377V31.6697Z" fill="#121217"/>
<path d="M142.361 20.2937H148.918V44.2937H142.361V40.9817C141.396 41.9417 140.336 42.8057 139.034 43.4777C137.443 44.1977 135.707 44.6777 133.875 44.7257C132.091 44.7737 130.258 44.4857 128.619 43.8137C126.931 43.1897 125.437 42.2297 124.183 41.0777C121.724 38.6777 120.374 35.4617 120.422 32.2457C120.374 29.0777 121.724 25.8617 124.183 23.4617C125.437 22.3097 126.931 21.3497 128.619 20.7257C130.258 20.0537 132.091 19.7657 133.875 19.8137C135.707 19.9097 137.443 20.3417 138.986 21.0617C140.336 21.7337 141.396 22.5977 142.361 23.5577V20.2937ZM141.541 35.2217C142.072 34.3097 142.361 33.3017 142.361 32.2457C142.361 31.2377 142.072 30.2297 141.541 29.3177C141.059 28.4537 140.287 27.6857 139.42 27.1097C138.6 26.5337 137.636 26.1497 136.671 25.9577C135.755 25.7657 134.791 25.6697 133.875 25.7177C132.042 25.8617 130.355 26.5337 129.053 27.7337C128.378 28.3097 127.848 29.0297 127.462 29.7977C127.124 30.5657 126.931 31.4297 126.931 32.2457C126.931 33.1097 127.124 33.9737 127.462 34.7417C127.848 35.5097 128.378 36.2297 129.053 36.8057C130.355 38.0057 132.042 38.6777 133.875 38.7737C134.791 38.8217 135.755 38.7737 136.671 38.5817C137.636 38.3417 138.552 37.9577 139.42 37.4297C140.287 36.8537 141.059 36.0857 141.541 35.2217Z" fill="#121217"/>
<path d="M117.762 24.6618C117.955 25.6698 118.051 26.6778 118.051 27.7818C118.051 37.3338 109.613 45.1098 99.2466 45.1098C88.8799 45.1098 80.4902 37.3338 80.4902 27.7818C80.4902 18.1818 88.8799 10.4058 99.2466 10.4058C104.502 10.4058 109.227 12.4218 112.651 15.6378L107.781 20.0058C105.659 17.9418 102.622 16.6458 99.2466 16.6458C92.6891 16.6458 87.337 21.6378 87.337 27.7818C87.337 33.8778 92.6891 38.8698 99.2466 38.8698C104.695 38.8698 109.227 35.5098 110.674 30.8538H98.8126L105.708 24.6618H117.762Z" fill="#121217"/>
</g>
<defs>
<linearGradient id="paint0_linear_60_759" x1="4.15147" y1="1.10885" x2="60.0446" y2="1.10885" gradientUnits="userSpaceOnUse">
<stop stop-color="white" stop-opacity="0.35"/>
<stop offset="0.046875" stop-color="white" stop-opacity="0"/>
<stop offset="0.364583" stop-color="white" stop-opacity="0"/>
<stop offset="0.458333" stop-color="white" stop-opacity="0.5"/>
<stop offset="0.505208" stop-color="white" stop-opacity="0.5"/>
<stop offset="0.734375" stop-opacity="0.35"/>
</linearGradient>
<clipPath id="clip0_60_759">
<rect width="55.9319" height="61.8499" fill="white" transform="translate(4.13757 1.07507)"/>
</clipPath>
<clipPath id="clip1_60_759">
<rect width="20.931" height="28.4924" fill="white" transform="matrix(0.833201 -0.552971 0.831299 0.555826 11.6443 18.0704)"/>
</clipPath>
<clipPath id="clip2_60_759">
<rect width="231.424" height="43.6537" fill="white" transform="translate(80.4902 10.24)"/>
</clipPath>
</defs>
</svg>
